<svg width="104" height="57" viewBox="0 0 104 57" fill="none" xmlns="http://www.w3.org/2000/svg">
<path fill-rule="evenodd" clip-rule="evenodd" d="M68.6121 40H60.4287V57H102V49.9157H68.6121V40ZM60.4287 18V0H100.855V7.08429H68.6121V18H60.4287Z" fill="#6A35FF"/>
<path fill-rule="evenodd" clip-rule="evenodd" d="M11.7369 40L4 57H12.4289L18.7221 42.75H49.1802L55.4734 57H64.0659L56.3047 40H50.8709H47.9657H19.9365H15.9803H11.7369ZM21.7493 18H29.6523L33.9511 8.26601L38.2499 18H46.2607L38.0428 0H29.9413L21.7493 18Z" fill="#1470EF"/>
<path d="M0.986 34L5.424 24.2H6.81L11.262 34H9.792L5.83 24.984H6.39L2.428 34H0.986ZM2.876 31.55L3.254 30.43H8.77L9.176 31.55H2.876Z" fill="#1470EF"/>
<path d="M16.4899 26.51C17.0966 26.51 17.6286 26.6267 18.0859 26.86C18.5526 27.0933 18.9166 27.448 19.1779 27.924C19.4392 28.4 19.5699 29.002 19.5699 29.73V34H18.2259V29.884C18.2259 29.1653 18.0486 28.624 17.6939 28.26C17.3486 27.896 16.8586 27.714 16.2239 27.714C15.7479 27.714 15.3326 27.8073 14.9779 27.994C14.6232 28.1807 14.3479 28.456 14.1519 28.82C13.9652 29.184 13.8719 29.6367 13.8719 30.178V34H12.5279V26.58H13.8159V28.582L13.6059 28.05C13.8486 27.5647 14.2219 27.1867 14.7259 26.916C15.2299 26.6453 15.8179 26.51 16.4899 26.51ZM22.0572 34V26.58H23.4012V34H22.0572ZM22.7292 25.152C22.4679 25.152 22.2485 25.068 22.0712 24.9C21.9032 24.732 21.8192 24.5267 21.8192 24.284C21.8192 24.032 21.9032 23.822 22.0712 23.654C22.2485 23.486 22.4679 23.402 22.7292 23.402C22.9905 23.402 23.2052 23.486 23.3732 23.654C23.5505 23.8127 23.6392 24.0133 23.6392 24.256C23.6392 24.508 23.5552 24.7227 23.3872 24.9C23.2192 25.068 22.9999 25.152 22.7292 25.152ZM35.2494 26.51C35.8467 26.51 36.374 26.6267 36.8314 26.86C37.2887 27.0933 37.6434 27.448 37.8954 27.924C38.1567 28.4 38.2874 29.002 38.2874 29.73V34H36.9434V29.884C36.9434 29.1653 36.7754 28.624 36.4394 28.26C36.1034 27.896 35.632 27.714 35.0254 27.714C34.5774 27.714 34.1854 27.8073 33.8494 27.994C33.5134 28.1807 33.252 28.456 33.0654 28.82C32.888 29.184 32.7994 29.6367 32.7994 30.178V34H31.4554V29.884C31.4554 29.1653 31.2874 28.624 30.9514 28.26C30.6247 27.896 30.1534 27.714 29.5374 27.714C29.0987 27.714 28.7114 27.8073 28.3754 27.994C28.0394 28.1807 27.778 28.456 27.5914 28.82C27.4047 29.184 27.3114 29.6367 27.3114 30.178V34H25.9674V26.58H27.2554V28.554L27.0454 28.05C27.2787 27.5647 27.638 27.1867 28.1234 26.916C28.6087 26.6453 29.1734 26.51 29.8174 26.51C30.5267 26.51 31.138 26.6873 31.6514 27.042C32.1647 27.3873 32.5007 27.9147 32.6594 28.624L32.1134 28.4C32.3374 27.8307 32.7294 27.3733 33.2894 27.028C33.8494 26.6827 34.5027 26.51 35.2494 26.51ZM44.0643 34.084C43.271 34.084 42.571 33.9207 41.9643 33.594C41.367 33.2673 40.9003 32.8193 40.5643 32.25C40.2377 31.6807 40.0743 31.0273 40.0743 30.29C40.0743 29.5527 40.233 28.8993 40.5503 28.33C40.877 27.7607 41.3203 27.3173 41.8803 27C42.4497 26.6733 43.089 26.51 43.7983 26.51C44.517 26.51 45.1517 26.6687 45.7023 26.986C46.253 27.3033 46.6823 27.7513 46.9903 28.33C47.3077 28.8993 47.4663 29.5667 47.4663 30.332C47.4663 30.388 47.4617 30.4533 47.4523 30.528C47.4523 30.6027 47.4477 30.6727 47.4383 30.738H41.1243V29.772H46.7383L46.1923 30.108C46.2017 29.632 46.1037 29.2073 45.8983 28.834C45.693 28.4607 45.4083 28.1713 45.0443 27.966C44.6897 27.7513 44.2743 27.644 43.7983 27.644C43.3317 27.644 42.9163 27.7513 42.5523 27.966C42.1883 28.1713 41.9037 28.4653 41.6983 28.848C41.493 29.2213 41.3903 29.6507 41.3903 30.136V30.36C41.3903 30.8547 41.5023 31.298 41.7263 31.69C41.9597 32.0727 42.2817 32.3713 42.6923 32.586C43.103 32.8007 43.5743 32.908 44.1063 32.908C44.545 32.908 44.9417 32.8333 45.2963 32.684C45.6603 32.5347 45.9777 32.3107 46.2483 32.012L46.9903 32.88C46.6543 33.272 46.2343 33.5707 45.7303 33.776C45.2357 33.9813 44.6803 34.084 44.0643 34.084ZM62.6735 26.51C63.2802 26.51 63.8122 26.6267 64.2695 26.86C64.7362 27.0933 65.1002 27.448 65.3615 27.924C65.6228 28.4 65.7535 29.002 65.7535 29.73V34H64.4095V29.884C64.4095 29.1653 64.2322 28.624 63.8775 28.26C63.5322 27.896 63.0422 27.714 62.4075 27.714C61.9315 27.714 61.5162 27.8073 61.1615 27.994C60.8068 28.1807 60.5315 28.456 60.3355 28.82C60.1488 29.184 60.0555 29.6367 60.0555 30.178V34H58.7115V26.58H59.9995V28.582L59.7895 28.05C60.0322 27.5647 60.4055 27.1867 60.9095 26.916C61.4135 26.6453 62.0015 26.51 62.6735 26.51ZM68.2408 34V26.58H69.5848V34H68.2408ZM68.9128 25.152C68.6515 25.152 68.4321 25.068 68.2548 24.9C68.0868 24.732 68.0028 24.5267 68.0028 24.284C68.0028 24.032 68.0868 23.822 68.2548 23.654C68.4321 23.486 68.6515 23.402 68.9128 23.402C69.1741 23.402 69.3888 23.486 69.5568 23.654C69.7341 23.8127 69.8228 24.0133 69.8228 24.256C69.8228 24.508 69.7388 24.7227 69.5708 24.9C69.4028 25.068 69.1835 25.152 68.9128 25.152ZM75.399 36.8C74.7176 36.8 74.055 36.702 73.411 36.506C72.7763 36.3193 72.2583 36.0487 71.857 35.694L72.501 34.658C72.8463 34.9567 73.271 35.19 73.775 35.358C74.279 35.5353 74.8063 35.624 75.357 35.624C76.2343 35.624 76.8783 35.4187 77.289 35.008C77.6996 34.5973 77.905 33.972 77.905 33.132V31.564L78.045 30.094L77.975 28.61V26.58H79.249V32.992C79.249 34.2987 78.9223 35.26 78.269 35.876C77.6156 36.492 76.659 36.8 75.399 36.8ZM75.231 33.692C74.5123 33.692 73.8683 33.5427 73.299 33.244C72.739 32.936 72.291 32.5113 71.955 31.97C71.6283 31.4287 71.465 30.8033 71.465 30.094C71.465 29.3753 71.6283 28.75 71.955 28.218C72.291 27.6767 72.739 27.2567 73.299 26.958C73.8683 26.6593 74.5123 26.51 75.231 26.51C75.8656 26.51 76.4443 26.6407 76.967 26.902C77.4896 27.154 77.905 27.546 78.213 28.078C78.5303 28.61 78.689 29.282 78.689 30.094C78.689 30.8967 78.5303 31.564 78.213 32.096C77.905 32.628 77.4896 33.0293 76.967 33.3C76.4443 33.5613 75.8656 33.692 75.231 33.692ZM75.385 32.516C75.8796 32.516 76.3183 32.4133 76.701 32.208C77.0836 32.0027 77.3823 31.718 77.597 31.354C77.821 30.99 77.933 30.57 77.933 30.094C77.933 29.618 77.821 29.198 77.597 28.834C77.3823 28.47 77.0836 28.19 76.701 27.994C76.3183 27.7887 75.8796 27.686 75.385 27.686C74.8903 27.686 74.447 27.7887 74.055 27.994C73.6723 28.19 73.369 28.47 73.145 28.834C72.9303 29.198 72.823 29.618 72.823 30.094C72.823 30.57 72.9303 30.99 73.145 31.354C73.369 31.718 73.6723 32.0027 74.055 32.208C74.447 32.4133 74.8903 32.516 75.385 32.516ZM91.099 26.51C91.6963 26.51 92.2236 26.6267 92.681 26.86C93.1383 27.0933 93.493 27.448 93.745 27.924C94.0063 28.4 94.137 29.002 94.137 29.73V34H92.793V29.884C92.793 29.1653 92.625 28.624 92.289 28.26C91.953 27.896 91.4816 27.714 90.875 27.714C90.427 27.714 90.035 27.8073 89.699 27.994C89.363 28.1807 89.1016 28.456 88.915 28.82C88.7376 29.184 88.649 29.6367 88.649 30.178V34H87.305V29.884C87.305 29.1653 87.137 28.624 86.801 28.26C86.4743 27.896 86.003 27.714 85.387 27.714C84.9483 27.714 84.561 27.8073 84.225 27.994C83.889 28.1807 83.6276 28.456 83.441 28.82C83.2543 29.184 83.161 29.6367 83.161 30.178V34H81.817V26.58H83.105V28.554L82.895 28.05C83.1283 27.5647 83.4876 27.1867 83.973 26.916C84.4583 26.6453 85.023 26.51 85.667 26.51C86.3763 26.51 86.9876 26.6873 87.501 27.042C88.0143 27.3873 88.3503 27.9147 88.509 28.624L87.963 28.4C88.187 27.8307 88.579 27.3733 89.139 27.028C89.699 26.6827 90.3523 26.51 91.099 26.51ZM101.216 34V32.432L101.146 32.138V29.464C101.146 28.8947 100.978 28.456 100.642 28.148C100.315 27.8307 99.8206 27.672 99.1579 27.672C98.7193 27.672 98.2899 27.7467 97.8699 27.896C97.4499 28.036 97.0953 28.2273 96.8059 28.47L96.2459 27.462C96.6286 27.154 97.0859 26.9207 97.6179 26.762C98.1593 26.594 98.7239 26.51 99.3119 26.51C100.329 26.51 101.113 26.7573 101.664 27.252C102.215 27.7467 102.49 28.5027 102.49 29.52V34H101.216ZM98.7799 34.084C98.2293 34.084 97.7439 33.9907 97.3239 33.804C96.9133 33.6173 96.5959 33.3607 96.3719 33.034C96.1479 32.698 96.0359 32.32 96.0359 31.9C96.0359 31.4987 96.1293 31.1347 96.3159 30.808C96.5119 30.4813 96.8246 30.22 97.2539 30.024C97.6926 29.828 98.2806 29.73 99.0179 29.73H101.37V30.696H99.0739C98.4019 30.696 97.9493 30.808 97.7159 31.032C97.4826 31.256 97.3659 31.5267 97.3659 31.844C97.3659 32.208 97.5106 32.502 97.7999 32.726C98.0893 32.9407 98.4906 33.048 99.0039 33.048C99.5079 33.048 99.9466 32.936 100.32 32.712C100.703 32.488 100.978 32.1613 101.146 31.732L101.412 32.656C101.235 33.0947 100.922 33.4447 100.474 33.706C100.026 33.958 99.4613 34.084 98.7799 34.084Z" fill="white"/>
<path d="M50.8026 28.428H55.8426V29.618H50.8026V28.428ZM50.9286 32.782H56.6406V34H49.5286V24.2H56.4446V25.418H50.9286V32.782Z" fill="#6A35FF"/>
</svg>
