<!-- icon666.com - MILLIONS vector ICONS FREE --><svg version="1.1" id="Capa_1" xmlns="http://www.w3.org/2000/svg" xmlns:xlink="http://www.w3.org/1999/xlink" x="0px" y="0px" viewBox="0 0 512 512" style="enable-background:new 0 0 512 512;" xml:space="preserve"><g><g><g><path d="M256.062,293.572c2.574,1.464,5.36,2.165,8.121,2.165c5.689,0,11.218-2.964,14.244-8.254 c4.482-7.854,1.757-17.865-6.097-22.356c-62.488-35.721-95.804-75.445-104.848-125.038c-4.02-22.09,0.648-54.811,20.128-78.152 c16.152-19.365,39.493-29.181,69.366-29.181c46.664,0,79.954,25.844,89.05,69.135c8.946,42.599-9.842,97.961-63.056,121.355 c-8.28,3.656-12.052,13.321-8.405,21.601s13.33,12.017,21.593,8.405c69.197-30.423,93.603-102.549,81.942-158.088 C368.436,49.158,331.543,0,256.985,0c-49.886,0-78.942,22.267-94.544,40.949c-28.062,33.618-32.198,77.575-27.201,105.007 C149.573,224.57,211.058,267.861,256.062,293.572z"></path><path d="M472.041,479.243H56.413c0.568-69.188,4.837-114.592,12.7-135.111c10.437-27.272,55.503-51.971,83.024-64.103 c24.157,42.289,62.195,67.067,104.12,67.059c41.383,0,79.075-24.779,103.161-67.067c27.512,12.114,72.552,36.769,83.016,64.13 c10.242,26.625,9.691,58.21,9.203,86.077c-0.098,5.928-0.195,11.688-0.195,17.208c0,9.052,7.34,16.383,16.392,16.383 s16.383-7.331,16.383-16.383c0-5.343,0.089-10.907,0.186-16.64c0.541-30.867,1.145-65.834-11.369-98.378 c-19.897-52.042-105.904-85.012-115.648-88.598c-8.023-2.938-16.969,0.763-20.545,8.529 c-18.105,39.378-47.472,61.964-80.566,61.973c-33.21,0-63.695-23.163-81.542-61.973c-3.568-7.766-12.496-11.466-20.545-8.529 c-9.736,3.585-95.742,36.556-115.657,88.58c-13.401,34.914-14.954,109.88-14.954,163.227c0,9.044,7.339,16.374,16.383,16.374 h432.073c9.052,0,16.392-7.322,16.392-16.374S481.093,479.243,472.041,479.243z"></path></g></g></g></svg>